<svg xmlns="http://www.w3.org/2000/svg" viewBox="0 0 1200 800"><defs><linearGradient id="g1" x1="0" x2="1" y1="0" y2="1"><stop offset="0" stop-color="#ffeecf"/><stop offset="1" stop-color="#f0d6b8"/></linearGradient></defs><rect width="100%" height="100%" fill="url(#g1)"/><g transform="translate(0,140)"><path d="M0,500 C250,350 450,380 700,420 C900,450 1100,360 1200,300 L1200,800 L0,800 Z" fill="#cba36a"/><path d="M0,600 C200,480 380,500 620,560 C860,620 1050,560 1200,520 L1200,800 L0,800 Z" fill="#9d6f41" opacity="0.9"/><path d="M0,700 C180,620 360,640 560,700 C760,760 980,720 1200,700 L1200,800 L0,800 Z" fill="#6b4a2f" opacity="0.95"/></g><circle cx="980" cy="120" r="60" fill="#ffd28a" opacity="0.95"/></svg>