<svg xmlns="http://www.w3.org/2000/svg" viewBox="0 0 1200 800"><defs><linearGradient id="g3" x1="0" x2="1" y1="0" y2="1"><stop offset="0" stop-color="#fff7ed"/><stop offset="1" stop-color="#f6ead6"/></linearGradient></defs><rect width="100%" height="100%" fill="url(#g3)"/><g transform="translate(0,200)"><path d="M0,500 C260,360 460,390 700,430 C900,470 1100,400 1200,360 L1200,800 L0,800 Z" fill="#c79a68"/><path d="M0,580 C180,520 360,540 560,600 C760,660 980,640 1200,600 L1200,800 L0,800 Z" fill="#7b5231" opacity="0.95"/><circle cx="940" cy="160" r="80" fill="#ffd89b" opacity="0.95"/></g><g fill="#4b6b4b" opacity="0.9"><rect x="40" y="300" width="20" height="120" rx="6"/><rect x="80" y="280" width="18" height="140" rx="6"/><rect x="120" y="300" width="16" height="110" rx="6"/></g></svg>